<svg width="1160" height="273" viewBox="0 0 1160 273" fill="none" xmlns="http://www.w3.org/2000/svg">
<path d="M-214.268 136.694C-216.012 141.464 -213.558 146.745 -208.786 148.489C-207.822 148.841 -206.838 149.013 -205.865 149.039L-196.953 270.876C-199.901 271.54 -202.464 273.635 -203.579 276.686C-205.321 281.457 -202.868 286.738 -198.097 288.481C-194.523 289.787 -190.663 288.736 -188.218 286.122L-12.8863 407.069C-13.0275 407.357 -13.1558 407.655 -13.2692 407.963C-15.0129 412.733 -12.5592 418.014 -7.78718 419.758C-3.01636 421.501 2.26428 419.048 4.00768 414.276C4.22648 413.678 4.37871 413.072 4.46842 412.467L122.841 412.406C123.324 415.628 125.507 418.491 128.782 419.688C133.553 421.431 138.835 418.977 140.577 414.206C141.285 412.267 141.291 410.249 140.739 408.413L258.46 353.155C259.506 354.733 261.039 356.009 262.955 356.707C266.683 358.071 270.717 356.86 273.137 353.992L459.723 469.102C459.657 469.256 459.586 469.405 459.526 469.565C457.784 474.336 460.236 479.616 465.008 481.36C469.778 483.103 475.06 480.65 476.803 475.878C477.309 474.495 477.45 473.071 477.297 471.701L638.969 428.899C639.916 431.207 641.784 433.128 644.312 434.051C647.566 435.24 651.055 434.475 653.5 432.354L792.174 555.86C791.797 556.438 791.471 557.062 791.224 557.74C789.48 562.51 791.934 567.792 796.706 569.535C801.478 571.278 806.757 568.825 808.501 564.053C808.6 563.78 808.683 563.505 808.755 563.231L944.517 578.096C944.657 581.715 946.937 585.062 950.549 586.381C954.886 587.966 959.637 586.073 961.775 582.131L1132.04 644.356L1134.07 649.46L1142.52 504.709C1145.93 504.378 1149.02 502.154 1150.27 498.72C1152.02 493.949 1149.56 488.668 1144.79 486.925C1144.73 486.902 1144.66 486.888 1144.6 486.866L1150.18 376.002C1153.79 375.859 1157.14 373.579 1158.45 369.971C1160.2 365.201 1157.74 359.918 1152.97 358.176C1150.37 357.225 1147.62 357.53 1145.37 358.772L1083.8 282.338C1084.47 281.537 1085.03 280.614 1085.41 279.571C1087.16 274.801 1084.7 269.519 1079.93 267.776C1075.16 266.034 1069.88 268.486 1068.13 273.258C1067.59 274.747 1067.46 276.286 1067.67 277.751L807.135 343.019C806.276 340.458 804.308 338.295 801.575 337.296C796.935 335.601 791.822 337.882 789.942 342.397L691.385 308.359C692.072 304.094 689.671 299.804 685.463 298.267C680.693 296.524 675.411 298.978 673.668 303.749C673.65 303.8 673.639 303.851 673.621 303.901L498.34 299.335C497.932 296.016 495.73 293.039 492.374 291.812C489.517 290.767 486.482 291.238 484.129 292.8L392.291 191.151C393.022 190.319 393.62 189.347 394.024 188.243C395.766 183.472 393.313 178.191 388.542 176.448C383.771 174.706 378.489 177.16 376.747 181.93C376.623 182.27 376.525 182.612 376.444 182.956L163.432 168.667C163.084 165.276 160.865 162.209 157.447 160.96C154.918 160.035 152.249 160.301 150.035 161.456L61.6203 44.5645C62.5673 43.6357 63.3351 42.4942 63.8212 41.1644C65.5649 36.3943 63.1111 31.113 58.3392 29.3695C53.6972 27.6732 48.5834 29.9579 46.7033 34.4767L-123.735 8.70141C-124.045 5.26595 -126.274 2.144 -129.73 0.881776C-134.5 -0.861897 -139.781 1.59184 -141.525 6.36369C-142.816 9.89828 -141.799 13.7105 -139.247 16.1592L-202.584 131.177C-207.328 129.513 -212.539 131.96 -214.268 136.694ZM-124.25 12.678C-124.098 12.2598 -123.989 11.8373 -123.898 11.4144L30.0237 34.6903L46.0377 37.1123C45.9834 37.6552 45.9768 38.1952 46.0193 38.7283L-114.177 101.621L-130.277 18.3283C-127.585 17.5283 -125.288 15.5193 -124.25 12.678ZM3.5395 406.925C2.51947 404.938 0.786833 403.31 -1.47589 402.483C-3.45426 401.76 -5.51631 401.768 -7.38008 402.354L-84.4243 243.447C-84.0336 243.181 -83.6626 242.883 -83.3148 242.558L88.2491 378.227L3.5395 406.925ZM47.8023 43.4932L-85.3755 227.701C-85.7203 227.522 -86.0749 227.357 -86.4484 227.221C-87.6238 226.792 -88.8284 226.619 -90.0043 226.671L-113.655 104.322L46.6399 41.3901C46.935 42.1369 47.3229 42.8456 47.8023 43.4932ZM-98.5196 238.115L-122.919 248.302L-197.455 147.142L-97.4442 231.047C-97.7586 231.561 -98.0291 232.113 -98.2436 232.701C-98.9041 234.507 -98.9596 236.383 -98.5196 238.115ZM-97.4751 240.61C-96.4293 242.343 -94.8119 243.748 -92.7625 244.497C-90.7851 245.219 -88.723 245.212 -86.8582 244.626L-12.2588 398.491L-121.267 250.544L-97.4751 240.61ZM-72.4815 247.676L119.695 362.621C119.647 362.736 119.592 362.848 119.549 362.968C118.967 364.559 118.863 366.205 119.145 367.76L91.3012 377.193L-72.4815 247.676ZM120.013 370.32C121.033 372.307 122.765 373.935 125.028 374.762C125.875 375.072 126.738 375.242 127.594 375.298L129.833 402.102C128.269 402.471 126.823 403.247 125.645 404.353L93.8254 379.191L120.013 370.32ZM135.094 402.413C134.247 402.103 133.383 401.933 132.527 401.877L130.289 375.073C133.199 374.387 135.72 372.3 136.823 369.28C137.184 368.291 137.356 367.28 137.373 366.284L257.272 350.587C257.283 350.628 257.296 350.668 257.307 350.708L139.587 405.966C138.543 404.388 137.01 403.113 135.094 402.413ZM272.55 341.514L380.599 192.941C381.106 193.248 381.648 193.515 382.227 193.726C383.509 194.194 384.826 194.35 386.103 194.25L420.697 313.694L274.72 344.856C274.252 343.605 273.514 342.462 272.55 341.514ZM378.388 191.051C378.431 191.102 378.471 191.154 378.516 191.205L270.361 339.926C270.01 339.743 269.649 339.574 269.267 339.434C266.956 338.588 264.527 338.737 262.436 339.648L233.5 293.39L378.388 191.051ZM260.142 341.08C258.974 342.076 258.037 343.372 257.472 344.916C257.111 345.904 256.94 346.914 256.922 347.911L137.021 363.604C136.862 363.045 136.65 362.504 136.389 361.985L231.289 294.954L260.142 341.08ZM134.829 359.776C133.885 358.787 132.713 357.986 131.342 357.486C131.137 357.411 130.93 357.354 130.724 357.294L150.166 211.15L154.473 178.785C155.739 178.759 156.975 178.477 158.108 177.96L229.853 292.657L134.829 359.776ZM151.132 178.235C151.351 178.315 151.571 178.376 151.792 178.44L147.583 210.07L128.043 356.935C127.865 356.938 127.687 356.944 127.51 356.957L89.6229 188.445L145.812 173.142C146.768 175.423 148.626 177.319 151.132 178.235ZM124.873 357.554C123.409 358.121 122.096 359.058 121.08 360.298L-81.1139 239.362C-81.0657 239.246 -81.0103 239.135 -80.9675 239.015C-80.4543 237.611 -80.3132 236.163 -80.4795 234.775L87.0134 189.157L124.873 357.554ZM-81.1898 232.165C-81.661 231.092 -82.3345 230.112 -83.1825 229.282L49.7478 45.4211C50.4307 45.9215 51.1911 46.3418 52.0263 46.6464C53.0395 47.0174 54.0754 47.1879 55.0961 47.1967L86.4207 186.515L-81.1898 232.165ZM-92.6593 227.183C-93.7762 227.578 -94.8129 228.185 -95.7064 228.975L-197.303 143.741C-197.192 143.502 -197.084 143.259 -196.992 143.008C-196.256 140.994 -196.276 138.892 -196.894 137.001L-116.215 105.327L-92.6593 227.183ZM-203.181 148.707C-202.244 148.446 -201.358 148.04 -200.548 147.504L-125.487 249.377L-187.073 275.093C-188.118 273.36 -189.736 271.955 -191.785 271.206C-192.602 270.907 -193.432 270.741 -194.257 270.679L-203.181 148.707ZM-186.687 283.896C-186.546 283.608 -186.418 283.31 -186.303 283.001C-185.644 281.196 -185.587 279.318 -186.027 277.587L-123.836 251.618L-11.1112 404.606C-11.1914 404.686 -11.2765 404.759 -11.3542 404.842L-186.687 283.896ZM4.46515 409.765C4.45103 409.671 4.42641 409.579 4.4103 409.485L90.7763 380.225L123.971 406.475C123.715 406.923 123.484 407.393 123.301 407.895C123.082 408.493 122.93 409.099 122.84 409.704L4.46515 409.765ZM274.553 351.691C274.618 351.537 274.69 351.388 274.749 351.228C275.2 349.995 275.364 348.727 275.287 347.495L421.452 316.296L464.335 464.365C463.114 464.924 462.022 465.755 461.14 466.802L274.553 351.691ZM1074.65 285.357C1076 285.679 1077.36 285.68 1078.65 285.407L1103.03 368.594L1036.12 374.523C1035.61 372.381 1034.32 370.463 1032.48 369.161L1074.65 285.357ZM719.823 389.049L791.309 351.757C792.318 352.992 793.654 353.985 795.26 354.573C795.791 354.767 796.328 354.901 796.865 354.993L798.436 551.818C798.011 551.884 797.596 551.987 797.186 552.112L719.823 389.049ZM803.016 552.261C802.396 552.034 801.768 551.882 801.139 551.794L799.569 355.052C800.332 354.955 801.074 354.761 801.784 354.48L890.25 485.904L806.076 554.123C805.213 553.331 804.185 552.688 803.016 552.261ZM804.133 353.126C805.392 352.128 806.406 350.794 807.014 349.187L1017.99 376.833C1018.02 378.435 1018.46 379.991 1019.26 381.348L892.36 484.195L804.133 353.126ZM1020.97 383.448C1021.51 383.947 1022.12 384.379 1022.79 384.742L955.551 568.747C953.543 568.333 951.513 568.605 949.746 569.448L893.875 486.449L1020.97 383.448ZM961.475 572.845C960.654 571.543 959.505 570.442 958.091 569.674L1025.33 385.67C1026.67 385.945 1028.01 385.92 1029.28 385.621L1082.47 519.555L961.475 572.845ZM1031.79 384.626C1032.04 384.483 1032.28 384.327 1032.51 384.162L1134.35 489.946C1133.79 490.674 1133.33 491.496 1133 492.406C1132.38 494.087 1132.3 495.828 1132.64 497.459L1084.95 518.465L1031.79 384.626ZM1133.59 499.999C1134.62 501.877 1136.31 503.407 1138.48 504.202C1138.92 504.363 1139.37 504.477 1139.82 504.568L1132.08 637.128L1085.95 520.98L1133.59 499.999ZM1136.71 487.805L1034.48 382.266C1035.04 381.544 1035.49 380.727 1035.82 379.828C1036.13 378.967 1036.31 378.087 1036.36 377.215L1103.8 371.24L1137.78 487.214C1137.41 487.385 1137.06 487.587 1136.71 487.805ZM789.921 349.429L718.662 386.603L685.015 315.682C687.38 314.95 689.428 313.284 690.571 310.936L789.273 345.025C789.122 346.549 789.356 348.057 789.921 349.429ZM673.98 310.81C674.323 311.544 674.769 312.229 675.297 312.853L660.348 370.466L648.46 416.283C645.825 415.996 643.221 416.864 641.299 418.6L589.633 377.875L673.98 310.81ZM654.824 419.906C653.884 418.649 652.609 417.623 651.075 416.97L663.017 370.946L677.588 314.795C678.075 315.086 678.595 315.34 679.149 315.543C680.163 315.913 681.197 316.084 682.218 316.093L716.264 387.854L654.824 419.906ZM673.116 306.592C673.101 307.063 673.125 307.53 673.179 307.991L587.448 376.153L497.19 305.011C497.444 304.566 497.672 304.101 497.854 303.604C498.044 303.085 498.175 302.561 498.267 302.035L565.157 303.778L673.116 306.592ZM471.32 464.085C471.084 463.999 470.845 463.93 470.608 463.865L489.456 309.637C491.719 309.577 493.879 308.678 495.517 307.138L585.274 377.883L474.444 466.002C473.568 465.183 472.517 464.522 471.32 464.085ZM486.058 309.087C486.294 309.173 486.533 309.241 486.77 309.307L470.366 443.543L467.924 463.535C467.59 463.544 467.26 463.567 466.931 463.612L424.1 315.73L480.607 303.668C481.517 306.095 483.434 308.128 486.058 309.087ZM476.602 469.091C476.46 468.76 476.304 468.434 476.122 468.122L587.456 379.604L639.582 420.69C639.288 421.181 639.032 421.703 638.828 422.261C638.343 423.589 638.193 424.956 638.318 426.277L476.602 469.091ZM655.257 430.304C655.592 429.768 655.88 429.192 656.105 428.573C656.877 426.46 656.824 424.247 656.11 422.284L717.423 390.299L794.742 553.268C794.476 553.447 794.218 553.638 793.971 553.843L655.257 430.304ZM809.048 560.546C808.988 559.011 808.546 557.526 807.778 556.222L891.767 488.156L947.504 570.957C946.445 571.923 945.59 573.148 945.065 574.588C944.966 574.861 944.882 575.135 944.811 575.41L809.048 560.546ZM962.7 579.595C963 578.145 962.941 576.685 962.565 575.319L1083.47 522.071L1130.7 640.988L962.7 579.595ZM1141.92 486.375C1141.4 486.358 1140.88 486.384 1140.38 486.455L1106.55 370.997L1140.7 367.971C1141.12 371.273 1143.32 374.231 1146.66 375.452C1146.93 375.552 1147.21 375.634 1147.48 375.707L1141.92 486.375ZM1143.22 360.413C1142.34 361.313 1141.64 362.402 1141.18 363.658C1140.99 364.185 1140.85 364.718 1140.76 365.251L1105.77 368.352L1081.19 284.469C1081.39 284.362 1081.58 284.247 1081.77 284.126L1143.22 360.413ZM1068.46 280.341C1069.23 281.984 1070.5 283.393 1072.13 284.347L1030.06 367.948C1025.36 366.398 1020.25 368.838 1018.54 373.516C1018.47 373.726 1018.41 373.938 1018.35 374.151L908.839 359.802L807.589 346.536C807.609 346.252 807.612 345.969 807.604 345.688L1068.46 280.341ZM482.118 294.611C481.475 295.392 480.945 296.287 480.577 297.291C480.127 298.524 479.961 299.791 480.039 301.024L423.346 313.126L388.74 193.638C389.255 193.435 389.751 193.189 390.223 192.898L482.118 294.611ZM376.207 185.651C376.273 186.728 376.533 187.775 376.957 188.751L232.063 291.096L160.375 176.495C161.49 175.513 162.382 174.247 162.926 172.754C163.094 172.297 163.211 171.833 163.303 171.369L376.207 185.651ZM147.85 163.044C146.903 163.973 146.136 165.113 145.651 166.441C145.159 167.791 145.011 169.18 145.148 170.52L89.0315 185.805L57.7829 46.8211C58.354 46.6519 58.9049 46.4287 59.4314 46.1551L147.85 163.044ZM-136.045 18.16C-135.026 18.5321 -133.984 18.7026 -132.958 18.7099L-116.737 102.626L-198.107 134.572C-198.676 133.761 -199.377 133.039 -200.195 132.439L-137.027 17.7298C-136.711 17.8883 -136.385 18.0357 -136.045 18.16Z" fill="#DADADA"/>
</svg>
