<svg width="25" height="25" viewBox="0 0 25 25" fill="none" xmlns="http://www.w3.org/2000/svg">
<path d="M20.1478 9.30592C19.9222 9.11004 19.6163 9 19.2974 9C18.9784 9 18.6725 9.11004 18.447 9.30592L12.4927 14.4779L6.53852 9.30592C6.31166 9.11559 6.00781 9.01028 5.69242 9.01266C5.37703 9.01504 5.07533 9.12492 4.85231 9.31865C4.62929 9.51237 4.50279 9.77443 4.50005 10.0484C4.49731 10.3223 4.61855 10.5863 4.83766 10.7833L11.6423 16.6941C11.8679 16.89 12.1738 17 12.4927 17C12.8117 17 13.1176 16.89 13.3432 16.6941L20.1478 10.7833C20.3733 10.5874 20.5 10.3217 20.5 10.0446C20.5 9.76757 20.3733 9.50186 20.1478 9.30592Z" fill="white"/>
</svg>
