<svg width="21.972656" height="21.973389" viewBox="0 0 21.9727 21.9734" fill="none" xmlns="http://www.w3.org/2000/svg" xmlns:xlink="http://www.w3.org/1999/xlink">
	<desc>
			Created with Pixso.
	</desc>
	<defs/>
	<path id="Vector" d="M21.4863 0.503357C21.332 0.348877 21.1484 0.226257 20.9473 0.142639C20.7461 0.059021 20.5293 0.0159302 20.3125 0.0159302C20.0938 0.0159302 19.877 0.059021 19.6758 0.142639C19.4746 0.226257 19.291 0.348877 19.1367 0.503357L10.9863 8.63672L2.83594 0.486694C2.68164 0.332397 2.5 0.210022 2.29688 0.126465C2.0957 0.0429688 1.88086 0 1.66211 0C1.44336 0 1.22656 0.0429688 1.02539 0.126465C0.824219 0.210022 0.640625 0.332397 0.486328 0.486694C0.332031 0.640991 0.210938 0.824219 0.126953 1.02582C0.0429688 1.22742 0 1.44348 0 1.66168C0 1.87994 0.0429688 2.09601 0.126953 2.29761C0.210938 2.49921 0.332031 2.68237 0.486328 2.83673L8.63672 10.9867L0.486328 19.1367C0.332031 19.291 0.210938 19.4742 0.126953 19.6758C0.0429688 19.8774 0 20.0935 0 20.3117C0 20.5299 0.0429688 20.746 0.126953 20.9476C0.210938 21.1492 0.332031 21.3324 0.486328 21.4867C0.640625 21.641 0.824219 21.7634 1.02539 21.8469C1.22656 21.9304 1.44336 21.9734 1.66211 21.9734C1.88086 21.9734 2.0957 21.9304 2.29688 21.8469C2.5 21.7634 2.68164 21.641 2.83594 21.4867L10.9863 13.3367L19.1367 21.4867C19.291 21.641 19.4746 21.7634 19.6758 21.8469C19.877 21.9304 20.0938 21.9734 20.3125 21.9734C20.5293 21.9734 20.7461 21.9304 20.9473 21.8469C21.1484 21.7634 21.332 21.641 21.4863 21.4867C21.6406 21.3324 21.7637 21.1492 21.8477 20.9476C21.9297 20.746 21.9727 20.5299 21.9727 20.3117C21.9727 20.0935 21.9297 19.8774 21.8477 19.6758C21.7637 19.4742 21.6406 19.291 21.4863 19.1367L13.3359 10.9867L21.4863 2.83673C22.1191 2.20337 22.1191 1.13672 21.4863 0.503357Z" fill="#E8983A" fill-opacity="1.000000" fill-rule="evenodd"/>
</svg>
