<svg width="25" height="25" viewBox="0 0 25 25" fill="none" xmlns="http://www.w3.org/2000/svg">
<g id="icon:heart-fill">
<path id="Vector" d="M24.3243 9.03161C24.3243 16.1772 13.3667 21.961 12.9001 22.1998C12.7771 22.2638 12.6396 22.2973 12.5 22.2973C12.3603 22.2973 12.2228 22.2638 12.0999 22.1998C11.6332 21.961 0.675659 16.1772 0.675659 9.03161C0.677615 7.35366 1.36787 5.74497 2.59498 4.55848C3.8221 3.37199 5.48586 2.70459 7.22127 2.7027C9.40138 2.7027 11.3102 3.60916 12.5 5.14137C13.6898 3.60916 15.5986 2.7027 17.7787 2.7027C19.5141 2.70459 21.1779 3.37199 22.405 4.55848C23.6321 5.74497 24.3224 7.35366 24.3243 9.03161Z" fill="url(#paint0_linear_55_2923)"/>
</g>
<defs>
<linearGradient id="paint0_linear_55_2923" x1="5.57843" y1="2.62303" x2="17.1778" y2="22.7253" gradientUnits="userSpaceOnUse">
<stop stop-color="#AC0000" stop-opacity="0.925"/>
<stop offset="1" stop-color="#A10101"/>
</linearGradient>
</defs>
</svg>
