<svg width="38.000000" height="38.000000" viewBox="0 0 38 38" fill="none" xmlns="http://www.w3.org/2000/svg" xmlns:xlink="http://www.w3.org/1999/xlink">
	<desc>
			Created with Pixso.
	</desc>
	<defs>
		<clipPath id="clip491_113">
			<rect id="logos:telegram" width="38.000000" height="38.000000" fill="white" fill-opacity="0"/>
		</clipPath>
		<linearGradient id="paint_linear_3_40_0" x1="1900.000000" y1="0.000000" x2="1900.000000" y2="3800.000000" gradientUnits="userSpaceOnUse">
			<stop stop-color="#2AABEE"/>
			<stop offset="1.000000" stop-color="#229ED9"/>
		</linearGradient>
	</defs>
	<rect id="logos:telegram" width="38.000000" height="38.000000" fill="#FFFFFF" fill-opacity="0"/>
	<g clip-path="url(#clip491_113)">
		<path id="Vector" d="M19 0C13.9619 0 9.12598 2.00293 5.56641 5.56494C2.00342 9.12817 0.000976562 13.9607 0 19C0 24.0371 2.00391 28.8733 5.56641 32.4351C9.12598 35.9971 13.9619 38 19 38C24.0381 38 28.874 35.9971 32.4336 32.4351C35.9961 28.8733 38 24.0371 38 19C38 13.9629 35.9961 9.12671 32.4336 5.56494C28.874 2.00293 24.0381 0 19 0Z" fill="url(#paint_linear_3_40_0)" fill-opacity="1.000000" fill-rule="nonzero"/>
		<path id="Vector" d="M8.6001 18.7993C14.1401 16.3862 17.833 14.7954 19.6797 14.0269C24.958 11.832 26.0537 11.4507 26.769 11.4377C26.9263 11.4353 27.2769 11.4741 27.5054 11.6589C27.6953 11.8149 27.7485 12.0256 27.7754 12.1736C27.7993 12.3215 27.832 12.6584 27.8052 12.9214C27.52 15.9258 26.2822 23.2166 25.6528 26.5815C25.3887 28.0054 24.8633 28.4827 24.3555 28.5293C23.251 28.6309 22.4141 27.8003 21.3452 27.0999C19.6738 26.0037 18.7295 25.3213 17.106 24.2517C15.2295 23.0156 16.4468 22.3359 17.5156 21.2256C17.7944 20.9351 22.6572 16.5132 22.7495 16.1121C22.7612 16.0618 22.7729 15.8748 22.6602 15.7761C22.5503 15.6775 22.3872 15.7112 22.2686 15.738C22.0991 15.7759 19.4302 17.5417 14.2529 21.0352C13.4956 21.5559 12.8101 21.8096 12.1924 21.7964C11.5156 21.7817 10.2095 21.4126 9.23877 21.0974C8.05127 20.7107 7.104 20.5061 7.18701 19.8491C7.229 19.5071 7.70068 19.157 8.6001 18.7993Z" fill="#FFFFFF" fill-opacity="1.000000" fill-rule="nonzero"/>
	</g>
</svg>
