<svg width="38.000000" height="38.000000" viewBox="0 0 38 38" fill="none" xmlns="http://www.w3.org/2000/svg" xmlns:xlink="http://www.w3.org/1999/xlink">
	<desc>
			Created with Pixso.
	</desc>
	<defs/>
	<rect id="Vector" width="38.000000" height="38.000000" fill="#FFFFFF" fill-opacity="0"/>
	<path id="Vector" d="M24.8389 0L13.1821 0C2.53076 0 0 2.53271 0 13.1614L0 24.8196C0 35.4673 2.51367 38 13.1611 38L24.8198 38C35.4673 38 38 35.4863 38 24.8386L38 13.1821C38 2.53076 35.4863 0 24.8389 0ZM30.6772 27.113L27.9053 27.113C26.8564 27.113 26.541 26.2637 24.6602 24.3828C23.0186 22.8 22.3252 22.6023 21.9087 22.6023C21.335 22.6023 21.1772 22.76 21.1772 23.5525L21.1772 26.0452C21.1772 26.7197 20.959 27.115 19.1978 27.115C17.4883 27 15.8306 26.4807 14.3613 25.5996C12.8921 24.7188 11.6528 23.5012 10.7466 22.0476C8.59424 19.3687 7.09619 16.2244 6.37256 12.865C6.37256 12.4487 6.53027 12.0725 7.32275 12.0725L10.0947 12.0725C10.8071 12.0725 11.0635 12.3899 11.3413 13.1213C12.6865 17.0811 14.9814 20.5237 15.9126 20.5237C16.2695 20.5237 16.4253 20.3662 16.4253 19.4751L16.4253 15.3977C16.3076 13.5376 15.3198 13.3799 15.3198 12.7073C15.3325 12.5298 15.4136 12.3643 15.5464 12.2458C15.6792 12.1274 15.8525 12.0652 16.0303 12.0725L20.3853 12.0725C20.98 12.0725 21.1772 12.3689 21.1772 13.0815L21.1772 18.584C21.1772 19.1787 21.4341 19.3762 21.6123 19.3762C21.9697 19.3762 22.2451 19.1787 22.8989 18.5249C24.3027 16.813 25.4497 14.9058 26.3037 12.863C26.3911 12.6177 26.5562 12.4075 26.7739 12.2649C26.9917 12.1221 27.2505 12.0547 27.5103 12.0725L30.2822 12.0725C31.1123 12.0725 31.2891 12.4888 31.1123 13.0815C30.1045 15.3396 28.8574 17.4829 27.3921 19.4751C27.0942 19.9309 26.9741 20.1685 27.3921 20.7024C27.668 21.1184 28.6387 21.9297 29.2925 22.7012C30.2422 23.6487 31.0308 24.7449 31.6274 25.9463C31.8647 26.7178 31.4678 27.113 30.6772 27.113Z" fill="#295FC9" fill-opacity="1.000000" fill-rule="nonzero"/>
</svg>
