<svg width="16" height="9" viewBox="0 0 16 9" fill="none" xmlns="http://www.w3.org/2000/svg">
<path d="M15.6478 0.805921C15.4222 0.610041 15.1163 0.500001 14.7974 0.500001C14.4784 0.500001 14.1725 0.610041 13.947 0.80592L7.99274 5.97795L2.03852 0.805919C1.81166 0.615591 1.50781 0.510276 1.19242 0.512656C0.87703 0.515037 0.575334 0.624923 0.352313 0.818647C0.12929 1.01237 0.00278631 1.27443 4.63841e-05 1.54839C-0.0026945 1.82235 0.118548 2.08628 0.33766 2.28334L7.14231 8.19408C7.36788 8.38996 7.67378 8.5 7.99274 8.5C8.3117 8.5 8.6176 8.38996 8.84317 8.19408L15.6478 2.28334C15.8733 2.0874 16 1.82169 16 1.54463C16 1.26757 15.8733 1.00186 15.6478 0.805921Z" fill="white"/>
</svg>
