<svg width="21.973633" height="21.973389" viewBox="0 0 21.9736 21.9734" fill="none" xmlns="http://www.w3.org/2000/svg" xmlns:xlink="http://www.w3.org/1999/xlink">
	<desc>
			Created with Pixso.
	</desc>
	<defs/>
	<path id="Vector" d="M21.4868 0.503418C21.3325 0.348877 21.1494 0.226318 20.9478 0.1427C20.7461 0.05896 20.5298 0.0159912 20.3115 0.0159912C20.0933 0.0159912 19.8774 0.05896 19.6758 0.1427C19.4741 0.226318 19.291 0.348877 19.1367 0.503418L10.9868 8.63672L2.83691 0.486694C2.68262 0.332397 2.49902 0.209961 2.29736 0.126465C2.09619 0.0429688 1.87988 0 1.66162 0C1.44336 0 1.22754 0.0429688 1.02588 0.126465C0.824219 0.209961 0.641113 0.332397 0.486816 0.486694C0.33252 0.640991 0.209961 0.824219 0.126465 1.02576C0.0429688 1.22742 0 1.44348 0 1.66174C0 1.87988 0.0429688 2.09595 0.126465 2.29761C0.209961 2.49927 0.33252 2.68237 0.486816 2.83667L8.63672 10.9867L0.486816 19.1367C0.33252 19.291 0.209961 19.4742 0.126465 19.6758C0.0429688 19.8774 0 20.0935 0 20.3116C0 20.5299 0.0429688 20.746 0.126465 20.9476C0.209961 21.1492 0.33252 21.3324 0.486816 21.4867C0.641113 21.641 0.824219 21.7634 1.02588 21.8469C1.22754 21.9304 1.44336 21.9734 1.66162 21.9734C1.87988 21.9734 2.09619 21.9304 2.29736 21.8469C2.49902 21.7634 2.68262 21.641 2.83691 21.4867L10.9868 13.3367L19.1367 21.4867C19.291 21.641 19.4741 21.7634 19.6758 21.8469C19.8774 21.9304 20.0933 21.9734 20.3115 21.9734C20.5298 21.9734 20.7461 21.9304 20.9478 21.8469C21.1494 21.7634 21.3325 21.641 21.4868 21.4867C21.6411 21.3324 21.7632 21.1492 21.8467 20.9476C21.9302 20.746 21.9736 20.5299 21.9736 20.3116C21.9736 20.0935 21.9302 19.8774 21.8467 19.6758C21.7632 19.4742 21.6411 19.291 21.4868 19.1367L13.3369 10.9867L21.4868 2.83667C22.1201 2.20337 22.1201 1.13672 21.4868 0.503418Z" fill="#FFFFFF" fill-opacity="1.000000" fill-rule="nonzero"/>
</svg>
