<svg width="160" height="28" viewBox="0 0 160 28" fill="none" xmlns="http://www.w3.org/2000/svg">
<path fill-rule="evenodd" clip-rule="evenodd" d="M51.298 0L39.7476 26.7934H43.5132L46.211 20.3346H56.0976L58.6845 26.7934H63.0657L51.5152 0H51.298ZM54.8183 17.1407L51.2579 8.25133L47.545 17.1407H54.8183Z" fill="white"/>
<path d="M9.88705 0.212929V26.7934H13.5441V11.3927L22.8134 24.0253H22.8858L32.3724 10.8071V26.7934H36.138V0.212929H36.0656L22.9027 18.2677L9.92326 0.212929H9.88705Z" fill="white"/>
<path d="M73.8628 1.06464C75.6973 1.06464 77.3267 1.38403 78.7509 2.02281C80.1751 2.63794 81.2855 3.5488 82.0821 4.75539C82.9028 5.93832 83.3132 7.40515 83.3132 9.15589C83.3132 10.1732 83.1563 11.1787 82.8425 12.1724C82.5287 13.166 82.0217 14.0651 81.3217 14.8695C80.7348 15.5679 79.966 16.1504 79.0152 16.617L85.5219 26.7934H81.1045L75.0387 17.5178C74.8207 17.5266 74.5977 17.5311 74.3697 17.5311H70.4954V26.7934H66.7298V13.9461H70.4954V13.9468H74.2973C75.6491 13.9468 76.687 13.6984 77.4112 13.2015C78.1595 12.681 78.6785 12.0659 78.9682 11.3561C79.2578 10.6227 79.4027 9.93663 79.4027 9.29785C79.4027 8.82467 79.3182 8.32784 79.1492 7.80735C78.9802 7.2632 78.7026 6.75454 78.3164 6.28137C77.9543 5.78454 77.4595 5.39417 76.8319 5.11027C76.2043 4.80271 75.4318 4.64892 74.5146 4.64892H70.6193V1.06464H73.8628Z" fill="white"/>
<path d="M93.4537 1.06464H89.6881V26.7934H106.634V23.2091H93.4537V1.06464Z" fill="white"/>
<path fill-rule="evenodd" clip-rule="evenodd" d="M109.108 13.9468C109.108 12.1724 109.446 10.4926 110.121 8.90748C110.821 7.32235 111.787 5.92649 113.018 4.7199C114.249 3.48965 115.673 2.53148 117.291 1.84538C118.908 1.13562 120.634 0.780736 122.468 0.780736C124.303 0.780736 126.029 1.13562 127.646 1.84538C129.288 2.53148 130.724 3.48965 131.955 4.7199C133.21 5.92649 134.188 7.32235 134.888 8.90748C135.588 10.4926 135.938 12.1724 135.938 13.9468C135.938 15.7685 135.588 17.4719 134.888 19.057C134.188 20.6422 133.21 22.038 131.955 23.2446C130.724 24.4512 129.288 25.3976 127.646 26.0837C126.029 26.7461 124.303 27.0773 122.468 27.0773C120.634 27.0773 118.908 26.7461 117.291 26.0837C115.673 25.3976 114.249 24.463 113.018 23.2801C111.787 22.0972 110.821 20.7131 110.121 19.128C109.446 17.5192 109.108 15.7921 109.108 13.9468ZM113.018 13.9823C113.018 15.733 113.441 17.33 114.285 18.7731C115.13 20.2163 116.277 21.3638 117.725 22.2155C119.173 23.0672 120.791 23.493 122.577 23.493C124.339 23.493 125.932 23.0672 127.357 22.2155C128.781 21.3638 129.915 20.2163 130.76 18.7731C131.605 17.33 132.027 15.7212 132.027 13.9468C132.027 12.1724 131.593 10.5636 130.724 9.12041C129.879 7.65357 128.732 6.4943 127.284 5.64259C125.86 4.79088 124.267 4.36502 122.505 4.36502C120.718 4.36502 119.101 4.8027 117.653 5.67807C116.229 6.52979 115.094 7.68906 114.249 9.15589C113.428 10.5991 113.018 12.2079 113.018 13.9823Z" fill="white"/>
<path d="M148.521 18.9684L141.208 1.06464H136.682L148.341 28L160 1.06464H155.51L148.521 18.9684Z" fill="white"/>
<path d="M5.003 13.9689C5.003 15.323 3.88304 16.4207 2.5015 16.4207C1.11996 16.4207 0 15.323 0 13.9689C0 12.6149 1.11996 11.5172 2.5015 11.5172C3.88304 11.5172 5.003 12.6149 5.003 13.9689Z" fill="white"/>
</svg>
