<svg width="36" height="36" viewBox="0 0 36 36" fill="none" xmlns="http://www.w3.org/2000/svg">
<path d="M18.3333 0.916626C8.67331 0.916626 0.833313 8.75663 0.833313 18.4166C0.833313 28.0766 8.67331 35.9166 18.3333 35.9166C27.9933 35.9166 35.8333 28.0766 35.8333 18.4166C35.8333 8.75663 27.9933 0.916626 18.3333 0.916626ZM26.4533 12.8166C26.1908 15.5816 25.0533 22.3016 24.4758 25.3991C24.2308 26.7116 23.7408 27.1491 23.2858 27.2016C22.2708 27.2891 21.5008 26.5366 20.5208 25.8891C18.9808 24.8741 18.1058 24.2441 16.6183 23.2641C14.8858 22.1266 16.0058 21.4966 17.0033 20.4816C17.2658 20.2191 21.7458 16.1416 21.8333 15.7741C21.8455 15.7185 21.8439 15.6607 21.8286 15.6058C21.8134 15.5509 21.7849 15.5005 21.7458 15.4591C21.6408 15.3716 21.5008 15.4066 21.3783 15.4241C21.2208 15.4591 18.7708 17.0866 13.9933 20.3066C13.2933 20.7791 12.6633 21.0241 12.1033 21.0066C11.4733 20.9891 10.2833 20.6566 9.39081 20.3591C8.28831 20.0091 7.43081 19.8166 7.50081 19.2041C7.53581 18.8891 7.97331 18.5741 8.79581 18.2416C13.9058 16.0191 17.3008 14.5491 18.9983 13.8491C23.8633 11.8191 24.8608 11.4691 25.5258 11.4691C25.6658 11.4691 25.9983 11.5041 26.2083 11.6791C26.3833 11.8191 26.4358 12.0116 26.4533 12.1516C26.4358 12.2566 26.4708 12.5716 26.4533 12.8166Z" fill="white"/>
</svg>
