<svg width="36" height="36" viewBox="0 0 36 36" fill="none" xmlns="http://www.w3.org/2000/svg">
<path d="M23.7111 0.916626H12.9748C3.16431 0.916626 0.833313 3.24938 0.833313 13.0389V23.7769C0.833313 33.5839 3.14856 35.9166 12.9556 35.9166H23.6936C33.5006 35.9166 35.8333 33.6014 35.8333 23.7944V13.0581C35.8333 3.24763 33.5181 0.916626 23.7111 0.916626ZM29.0888 25.8891H26.5356C25.5696 25.8891 25.2791 25.1069 23.5466 23.3744C22.0346 21.9166 21.3958 21.7346 21.0126 21.7346C20.4841 21.7346 20.3388 21.8799 20.3388 22.6096V24.9056C20.3388 25.5269 20.1376 25.8909 18.5153 25.8909C16.9409 25.7851 15.4142 25.3067 14.0609 24.4953C12.7075 23.6839 11.5664 22.5625 10.7313 21.2236C8.74886 18.7561 7.36946 15.8601 6.70281 12.7659C6.70281 12.3826 6.84806 12.0361 7.57781 12.0361H10.1311C10.7873 12.0361 11.0236 12.3284 11.2791 13.0021C12.5181 16.6491 14.6321 19.8201 15.4896 19.8201C15.8186 19.8201 15.9621 19.6749 15.9621 18.8541V15.0986C15.8536 13.3854 14.9436 13.2401 14.9436 12.6206C14.9553 12.4572 15.0301 12.3048 15.1523 12.1957C15.2745 12.0866 15.4344 12.0293 15.5981 12.0361H19.6091C20.1568 12.0361 20.3388 12.3091 20.3388 12.9654V18.0334C20.3388 18.5811 20.5751 18.7631 20.7396 18.7631C21.0686 18.7631 21.3223 18.5811 21.9243 17.9791C23.2173 16.4023 24.2737 14.6455 25.0603 12.7641C25.1407 12.5381 25.2928 12.3447 25.4935 12.2132C25.6941 12.0818 25.9323 12.0196 26.1716 12.0361H28.7248C29.4896 12.0361 29.6523 12.4194 29.4896 12.9654C28.5612 15.0451 27.4124 17.0193 26.0631 18.8541C25.7883 19.2741 25.6781 19.4929 26.0631 19.9846C26.3168 20.3679 27.2111 21.1151 27.8131 21.8256C28.6879 22.6982 29.4144 23.7079 29.9638 24.8146C30.1826 25.5251 29.8168 25.8891 29.0888 25.8891Z" fill="white"/>
</svg>
